<?xml version="1.0" encoding="utf-8"?>
<svg xmlns="http://www.w3.org/2000/svg" viewBox="0.0005 -0.0003 499.9998 500.0002" width="64px" height="64px" preserveAspectRatio="none"><path d="M 419.269 186.051 L 367.735 186.051 C 361.895 165.35 350.31 148.956 332.883 136.85 C 315.408 124.754 290.928 118.71 259.439 118.71 C 250.608 118.71 242.153 119.29 234.208 120.456 L 234.208 379.547 C 241.823 380.424 249.86 380.861 258.364 380.861 C 297.282 380.861 326.996 368.541 347.32 343.906 C 358.111 330.933 366.148 313.879 371.474 292.746 L 423.007 292.746 C 418.428 326.56 403.149 354.91 377.36 377.797 C 346.338 405.342 304.57 419.12 251.964 419.12 C 206.644 419.12 168.567 407.819 137.777 385.234 C 97.317 355.347 76.994 309.215 76.994 246.833 C 76.994 199.46 92.226 160.611 122.687 130.296 C 155.578 97.351 200.99 80.882 258.876 80.882 C 308.261 80.882 346.617 91.596 373.856 113.019 C 401.141 134.446 416.279 158.791 419.269 186.051 Z M 166.231 152.16 C 142.684 174.314 130.909 208.351 130.909 254.26 C 130.909 291.869 141.562 322.409 162.773 345.873 C 168.053 351.705 174.079 356.806 180.808 361.179 L 180.808 140.355 C 175.668 143.851 170.856 147.786 166.231 152.16 Z M 26.724 26.019 C 10.138 42.169 1.914 62.496 1.541 85.223 C -0.513 195.069 -0.513 304.941 1.541 414.766 C 1.914 437.51 10.138 457.842 26.724 473.996 C 43.356 490.174 64.241 498.096 87.601 498.524 C 195.851 500.492 304.149 500.492 412.401 498.524 C 435.807 498.096 456.598 490.183 473.277 473.996 C 489.862 457.834 498.039 437.537 498.459 414.766 C 500.514 304.941 500.514 195.069 498.459 85.223 C 498.039 62.464 489.862 42.177 473.277 26.019 C 456.598 9.828 435.807 1.919 412.401 1.487 C 304.149 -0.496 195.851 -0.496 87.601 1.487 C 76.248 1.687 48.542 4.81 26.724 26.019 Z" style="fill: rgb(13, 13, 13); fill-opacity: 1; stroke-width: 0.145455;" id="path2"/></svg>